<?xml version="1.0" encoding="UTF-8" standalone="no"?>
<!-- Created with Inkscape (http://www.inkscape.org/) -->

<svg
   xmlns:dc="http://purl.org/dc/elements/1.1/"
   xmlns:cc="http://creativecommons.org/ns#"
   xmlns:rdf="http://www.w3.org/1999/02/22-rdf-syntax-ns#"
   xmlns:svg="http://www.w3.org/2000/svg"
   xmlns="http://www.w3.org/2000/svg"
   version="1.1"
   width="32.174"
   height="30.063246"
   id="svg2"
   xml:space="preserve"><metadata
     id="metadata8"><rdf:RDF><cc:Work
         rdf:about=""><dc:format>image/svg+xml</dc:format><dc:type
           rdf:resource="http://purl.org/dc/dcmitype/StillImage" /><dc:title></dc:title></cc:Work></rdf:RDF></metadata><defs
     id="defs6" /><g
     transform="matrix(1.25,0,0,-1.25,0,30.063245)"
     id="g10"><g
       id="g12"><path
         d="m 22.5,13.394 -9.562,7.59 -9.684,-7.633 -0.008,-13.3 19.254,0 0,13.343 z"
         id="path14"
         style="fill:#5b9bd5;fill-opacity:1;fill-rule:evenodd;stroke:#c8c8c8;stroke-width:0.0494065;stroke-linecap:square;stroke-linejoin:miter;stroke-miterlimit:10;stroke-opacity:1;stroke-dasharray:none" /><path
         d="m 6.664,0.805 4.016,0 0,7.664 -4.016,0 0,-7.664 z m 10.746,6.113 2.149,0 0,2.148 -2.149,0 0,-2.148 z m -2.722,0 2.148,0 0,2.148 -2.148,0 0,-2.148 z m 0,2.793 2.148,0 0,2.148 -2.148,0 0,-2.148 z m 2.722,0 2.149,0 0,2.148 -2.149,0 0,-2.148 z"
         id="path16"
         style="fill:#ffffff;fill-opacity:1;fill-rule:evenodd;stroke:none" /><path
         d="M 22.5,13.394 25.688,13.383 12.875,24 6.617,18.812 l 0,2.317 -3.066,0 0,-4.864 -3.5,-2.902 3.203,-0.012 9.684,7.633 9.562,-7.59 z"
         id="path18"
         style="fill:#acccea;fill-opacity:1;fill-rule:evenodd;stroke:#c8c8c8;stroke-width:0.0494065;stroke-linecap:square;stroke-linejoin:miter;stroke-miterlimit:10;stroke-opacity:1;stroke-dasharray:none" /></g></g></svg>