<?xml version="1.0" encoding="UTF-8" standalone="no"?>
<!-- Created with Inkscape (http://www.inkscape.org/) -->

<svg
   xmlns:dc="http://purl.org/dc/elements/1.1/"
   xmlns:cc="http://creativecommons.org/ns#"
   xmlns:rdf="http://www.w3.org/1999/02/22-rdf-syntax-ns#"
   xmlns:svg="http://www.w3.org/2000/svg"
   xmlns="http://www.w3.org/2000/svg"
   version="1.1"
   width="32.514526"
   height="60.508316"
   id="svg2"
   xml:space="preserve"><metadata
     id="metadata8"><rdf:RDF><cc:Work
         rdf:about=""><dc:format>image/svg+xml</dc:format><dc:type
           rdf:resource="http://purl.org/dc/dcmitype/StillImage" /><dc:title></dc:title></cc:Work></rdf:RDF></metadata><defs
     id="defs6" /><g
     transform="matrix(1.854661,0,0,-1.854661,0,60.508315)"
     id="g10"><g
       id="g12"><path
         d="M 17.496,0.277 8.738,24.238 0.078,0.297 1.41,0.293 l 0.426,1.176 6.902,3.976 6.821,-3.757 0.507,-1.395 1.43,-0.012 0,-0.004 z M 8.727,12.938 12.672,9.215 8.73,6.941 4.832,9.137 8.727,12.938 z m -3.204,-1.317 1.172,3.231 1.09,-1.024 -2.262,-2.207 z m 4.129,2.223 1.106,1.078 1.168,-3.223 -2.274,2.145 z m 0.618,2.41 -1.559,-1.52 -1.531,1.446 1.558,4.297 1.532,-4.223 z M 2.527,3.367 4.207,7.996 7.422,6.188 2.527,3.367 z m 7.524,2.832 3.203,1.848 1.66,-4.582 -4.863,2.734 z"
         id="path14"
         style="fill:#28669d;fill-opacity:1;fill-rule:evenodd;stroke:#c8c8c8;stroke-width:0.0603404;stroke-linecap:square;stroke-linejoin:miter;stroke-miterlimit:10;stroke-opacity:1;stroke-dasharray:none" /><path
         d="m 14.316,26.691 c 0,-2.023 -1.023,-3.804 -2.566,-4.843 l 0.461,-0.969 c 1.891,1.219 3.152,3.363 3.152,5.812 0,0.004 0,0.016 0,0.024 0,0.004 0,0.012 0,0.019 0,2.45 -1.261,4.598 -3.152,5.813 L 11.75,31.578 c 1.543,-1.035 2.566,-2.816 2.566,-4.84 0,-0.008 0,-0.015 0,-0.023 l 0,-0.004 c 0,-0.004 0,-0.012 0,-0.02 z m -3.558,2.215 c 0.586,-0.554 0.957,-1.344 0.957,-2.222 0,-0.879 -0.371,-1.668 -0.957,-2.223 l 0.457,-1.008 c 0.933,0.746 1.539,1.899 1.551,3.199 0,0.004 0,0.016 0,0.024 0,0.004 0,0.004 0,0.008 0,0 0,0 0,0.004 0,0.007 0,0.015 0,0.027 -0.012,1.297 -0.618,2.449 -1.551,3.195 l -0.457,-1.008 0,0.004 z M 2.723,26.691 c 0,0.004 0,0.012 0,0.02 l 0,0.004 c 0,0.004 0,0.012 0,0.019 0,2.024 1.019,3.805 2.562,4.84 l -0.457,0.969 c -1.89,-1.215 -3.156,-3.359 -3.156,-5.809 0,-0.007 0,-0.015 0,-0.023 0,-0.008 0,-0.016 0,-0.023 0,-2.45 1.266,-4.594 3.156,-5.809 l 0.457,0.969 c -1.543,1.035 -2.562,2.816 -2.562,4.84 l 0,0.003 z m 3.648,2.215 -0.457,1.008 C 4.98,29.168 4.379,28.012 4.367,26.715 c 0,-0.008 -0.004,-0.016 -0.004,-0.024 0,-0.003 0.004,-0.003 0.004,-0.007 0,0 -0.004,-0.004 -0.004,-0.004 0,-0.008 0.004,-0.02 0.004,-0.028 0.008,-1.297 0.613,-2.453 1.547,-3.195 l 0.457,1.008 c -0.586,0.555 -0.953,1.344 -0.957,2.223 0,0.874 0.371,1.667 0.957,2.222 l 0,-0.004 z m 3.285,-2.234 c 0,0.601 -0.48,1.09 -1.07,1.09 -0.586,0 -1.066,-0.489 -1.066,-1.09 0,-0.602 0.48,-1.09 1.066,-1.09 0.59,0 1.07,0.488 1.07,1.09 z"
         id="path16"
         style="fill:#acccea;fill-opacity:1;fill-rule:evenodd;stroke:#c8c8c8;stroke-width:0.0603404;stroke-linecap:square;stroke-linejoin:miter;stroke-miterlimit:10;stroke-opacity:1;stroke-dasharray:none" /></g></g></svg>